# xmcd CD database file
#
# Track frame offsets:
#	150
#	33564
#	52539
#	74923
#	102240
#	133240
#	154277
#	172661
#	194051
#
# Disc length: 3239 seconds
#
# Revision: 0
# Processed by: cddbd v1.5.1PL0 Copyright (c) Steve Scherf et al.
# Submitted via: CDex 1.51
#
DISCID=7f0ca509
DTITLE=Orange - Verve Remixed (the best of)
DYEAR=2005
DGENRE=Jazz
TTITLE0=Willie Bobo - Spanish grease
TTITLE1=Astrud Gilberto - Who needs forever?
TTITLE2=Dinah Washington - Is you is or you ain't my baby
TTITLE3=Nina Simone - Feelin good
TTITLE4=Dizzy Gillespie - Manteca
TTITLE5=Sarah Vaughan - Whatever Lola wants
TTITLE6=Oscar Brown Jr. - Brother where are you
TTITLE7=Ella Fitzgerald - Slap that bass
TTITLE8=Selection Verve remixed vol 3
EXTD=YEAR: 2005
EXTT0=
EXTT1=
EXTT2=
EXTT3=
EXTT4=
EXTT5=
EXTT6=
EXTT7=
EXTT8=
PLAYORDER=
